HIERARCHY
ROOT Hips
{
	OFFSET 0.00000 0.00000 0.00000
	CHANNELS 6 Xposition Yposition Zposition Zrotation Yrotation Xrotation 
	JOINT LHipJoint
	{
		OFFSET 0 0 0
		CHANNELS 3 Zrotation Yrotation Xrotation
		JOINT LeftUpLeg
		{
			OFFSET 1.62329 -1.80800 0.67318
			CHANNELS 3 Zrotation Yrotation Xrotation
			JOINT LeftLeg
			{
				OFFSET 2.57139 -7.06484 0.00000
				CHANNELS 3 Zrotation Yrotation Xrotation
				JOINT LeftFoot
				{
					OFFSET 2.52017 -6.92413 0.00000
					CHANNELS 3 Zrotation Yrotation Xrotation
					JOINT LeftToeBase
					{
						OFFSET 0.23295 -0.64001 2.10214
						CHANNELS 3 Zrotation Yrotation Xrotation
						End Site
						{
							OFFSET 0.00000 -0.00000 1.10139
						}
					}
				}
			}
		}
	}
	JOINT RHipJoint
	{
		OFFSET 0 0 0
		CHANNELS 3 Zrotation Yrotation Xrotation
		JOINT RightUpLeg
		{
			OFFSET -1.48061 -1.80800 0.67318
			CHANNELS 3 Zrotation Yrotation Xrotation
			JOINT RightLeg
			{
				OFFSET -2.63258 -7.23296 0.00000
				CHANNELS 3 Zrotation Yrotation Xrotation
				JOINT RightFoot
				{
					OFFSET -2.54779 -7.00000 0.00000
					CHANNELS 3 Zrotation Yrotation Xrotation
					JOINT RightToeBase
					{
						OFFSET -0.23067 -0.63376 2.12161
						CHANNELS 3 Zrotation Yrotation Xrotation
						End Site
						{
							OFFSET -0.00000 -0.00000 1.11000
						}
					}
				}
			}
		}
	}
	JOINT LowerBack
	{
		OFFSET 0 0 0
		CHANNELS 3 Zrotation Yrotation Xrotation
		JOINT Spine
		{
			OFFSET -0.02108 2.07573 -0.16981
			CHANNELS 3 Zrotation Yrotation Xrotation
			JOINT Spine1
			{
				OFFSET 0.05070 2.08439 -0.03141
				CHANNELS 3 Zrotation Yrotation Xrotation
				JOINT Neck
				{
					OFFSET 0 0 0
					CHANNELS 3 Zrotation Yrotation Xrotation
					JOINT Neck1
					{
						OFFSET -0.10731 1.60408 0.31370
						CHANNELS 3 Zrotation Yrotation Xrotation
						JOINT Head
						{
							OFFSET 0.08411 1.65679 -0.30822
							CHANNELS 3 Zrotation Yrotation Xrotation
							End Site
							{
								OFFSET 0.03911 1.69149 -0.14146
							}
						}
					}
				}
				JOINT LeftShoulder
				{
					OFFSET 0 0 0
					CHANNELS 3 Zrotation Yrotation Xrotation
					JOINT LeftArm
					{
						OFFSET 3.52315 0.73219 -0.54694
						CHANNELS 3 Zrotation Yrotation Xrotation
						JOINT LeftForeArm
						{
							OFFSET 5.32462 -0.00000 -0.00000
							CHANNELS 3 Zrotation Yrotation Xrotation
							JOINT LeftHand
							{
								OFFSET 3.48402 -0.00000 -0.00000
								CHANNELS 3 Zrotation Yrotation Xrotation
								JOINT LeftFingerBase
								{
									OFFSET 0 0 0
									CHANNELS 3 Zrotation Yrotation Xrotation
									JOINT LeftHandIndex1
									{
										OFFSET 0.57248 -0.00000 -0.00000
										CHANNELS 3 Zrotation Yrotation Xrotation
										End Site
										{
											OFFSET 0.46154 -0.00000 -0.00000
										}
									}
								}
								JOINT LThumb
								{
									OFFSET 0 0 0
									CHANNELS 3 Zrotation Yrotation Xrotation
									End Site
									{
										OFFSET 0.46859 -0.00000 0.46859
									}
								}
							}
						}
					}
				}
				JOINT RightShoulder
				{
					OFFSET 0 0 0
					CHANNELS 3 Zrotation Yrotation Xrotation
					JOINT RightArm
					{
						OFFSET -3.41766 0.93592 -0.10019
						CHANNELS 3 Zrotation Yrotation Xrotation
						JOINT RightForeArm
						{
							OFFSET -5.33589 -0.00000 -0.00000
							CHANNELS 3 Zrotation Yrotation Xrotation
							JOINT RightHand
							{
								OFFSET -3.64134 -0.00000 -0.00000
								CHANNELS 3 Zrotation Yrotation Xrotation
								JOINT RightFingerBase
								{
									OFFSET 0 0 0
									CHANNELS 3 Zrotation Yrotation Xrotation
									JOINT RightHandIndex1
									{
										OFFSET -0.73481 -0.00000 -0.00000
										CHANNELS 3 Zrotation Yrotation Xrotation
										End Site
										{
											OFFSET -0.59242 -0.00000 -0.00000
										}
									}
								}
								JOINT RThumb
								{
									OFFSET 0 0 0
									CHANNELS 3 Zrotation Yrotation Xrotation
									End Site
									{
										OFFSET -0.60147 -0.00000 0.60147
									}
								}
							}
						}
					}
				}
			}
		}
	}
}
MOTION
Frames: 10
Frame Time: .0083333
1.8389 17.5944 -6.4928 0.1030 -29.2889 3.4242 0.0000 0.0000 0.0000 -14.5457 -9.6641 -25.4371 0.8781 5.9739 16.7088 0.0902 4.0284 -8.5601 0.3351 -3.7202 -10.2908 0.0000 0.0000 0.0000 23.2898 0.8747 -0.0001 -1.7388 -8.2994 23.6273 -2.0040 2.0813 -26.2179 -0.0703 1.7105 -4.7062 3.2432 3.3427 5.2017 0.0231 4.6351 0.4829 -2.1012 2.2806 -2.1569 -9.8914 -2.4229 -27.7627 3.3573 -0.2889 4.9286 2.6144 -0.0907 5.7849 0.0000 0.0000 0.0000 -64.6774 -0.9916 -10.0629 33.2007 -43.4837 -13.5600 -0.0000 0.0000 -14.9973 23.4083 28.2694 11.5870 -7.1250 0.0000 -0.0000 -8.3635 60.1554 -3.1052 0.0000 0.0000 0.0000 37.1570 36.2776 10.5086 -30.9965 41.7324 -12.0675 0.0000 0.0000 17.8146 -28.9334 4.0568 -2.2395 7.1250 -0.0000 -0.0000 -1.7296 -25.3465 -0.8230
1.8768 17.5989 -6.5686 -0.0433 -29.3632 3.5518 0.0000 0.0000 0.0000 -14.4192 -9.5439 -25.4408 0.8221 5.7851 16.1623 0.1013 4.1947 -8.9966 0.3563 -3.8350 -10.6130 0.0000 0.0000 0.0000 23.3722 1.0639 -0.6267 -1.8166 -8.4731 24.1606 -1.9908 2.2648 -26.0845 -0.0730 1.7427 -4.7950 3.4371 3.3247 5.4435 0.1373 4.6299 0.6203 -2.1021 2.2778 -2.1448 -10.0670 -2.4855 -27.8953 3.3361 -0.2954 4.8607 2.6333 -0.0980 5.7808 0.0000 -0.0000 0.0000 -66.1657 -0.6788 -9.0159 30.5949 -41.3979 -11.8011 -0.0000 0.0000 -13.0364 20.8716 28.4452 10.2937 -7.1250 0.0000 -0.0000 -11.2904 59.7279 -4.0909 0.0000 -0.0000 0.0000 39.7306 35.1281 12.0843 -31.0831 41.8039 -12.1252 0.0000 0.0000 16.2314 -29.1742 4.0092 -2.2353 7.1250 -0.0000 -0.0000 -1.9131 -25.3901 -0.9085
1.9145 17.5984 -6.6435 -0.1117 -29.4027 3.6082 0.0000 0.0000 0.0000 -14.3111 -9.6319 -25.3567 0.7754 5.6224 15.6926 0.1070 4.5772 -9.5129 0.3639 -3.8753 -10.7262 0.0000 0.0000 0.0000 23.3703 1.1038 -1.2791 -1.8980 -8.6504 24.7077 -1.9719 2.4759 -25.9065 -0.0823 1.8507 -5.0931 3.5227 3.3223 5.7802 0.2279 4.6446 0.7027 -2.0772 2.2828 -2.2475 -10.1030 -2.5299 -27.8649 3.1637 -0.3252 4.7029 2.5762 -0.1256 5.7254 0.0000 0.0000 0.0000 -67.5938 -0.3738 -7.7465 28.1232 -39.2294 -10.2015 -0.0000 0.0000 -10.9251 18.9596 28.6741 9.3604 -7.1250 0.0000 -0.0000 -13.5199 59.5078 -4.8441 0.0000 0.0000 0.0000 42.3715 33.9222 13.6345 -30.9475 41.6918 -12.0349 0.0000 0.0000 14.4505 -29.4522 3.9483 -2.2266 7.1250 -0.0000 -0.0000 -2.1252 -25.4473 -1.0065
1.9513 17.5965 -6.7165 -0.1223 -29.3769 3.6666 0.0000 0.0000 0.0000 -14.2878 -9.6918 -25.3449 0.7378 5.4875 15.3044 0.1132 4.8480 -9.9248 0.3474 -3.7872 -10.4787 0.0000 0.0000 0.0000 23.3177 1.0785 -1.9478 -1.9737 -8.8111 25.2063 -1.9488 2.7057 -25.6974 -0.0827 1.8544 -5.1036 3.3821 3.2913 6.0951 0.4444 4.6101 0.7659 -1.7943 2.2644 -2.3892 -10.2476 -2.5628 -27.8273 2.8875 -0.2918 4.5719 2.5089 -0.1351 5.6733 0.0000 -0.0000 0.0000 -69.3127 -0.0860 -6.9149 25.8657 -37.0757 -8.8065 -0.0000 0.0000 -7.8277 16.0810 28.6675 7.8737 -7.1250 0.0000 -0.0000 -16.5996 58.8435 -5.7164 0.0000 -0.0000 0.0000 44.7982 32.5103 15.2982 -30.8510 41.6117 -11.9707 0.0000 0.0000 12.4252 -29.5210 3.8595 -2.1827 7.1250 -0.0000 -0.0000 -2.1814 -25.5462 -1.0281
1.9870 17.5947 -6.7823 -0.2304 -29.2800 3.8203 0.0000 0.0000 0.0000 -14.2154 -9.6274 -25.4360 0.7029 5.3590 14.9353 0.1163 4.9282 -10.0749 0.3676 -3.8945 -10.7800 0.0000 0.0000 0.0000 23.3701 1.1093 -2.5663 -2.0409 -8.9507 25.6412 -1.9489 3.0305 -25.6282 -0.0440 1.3540 -3.7233 3.2065 3.2558 6.3322 0.8006 4.5685 0.7938 -1.3440 2.2430 -2.5379 -10.5116 -2.5929 -27.8270 2.5750 -0.2047 4.5574 2.4547 -0.1273 5.6616 0.0000 0.0000 0.0000 -71.2505 0.2762 -6.3152 23.6631 -34.8059 -7.5134 -0.0000 0.0000 -3.7469 14.3014 28.0558 6.8370 -7.1250 0.0000 -0.0000 -18.0623 57.8658 -5.8127 0.0000 0.0000 0.0000 46.9814 30.7759 16.8658 -30.7873 41.5588 -11.9285 0.0000 0.0000 10.7404 -29.4583 3.6924 -2.0831 7.1250 -0.0000 -0.0000 -2.1423 -25.7403 -1.0000
2.0211 17.5978 -6.8435 -0.4123 -29.1460 4.0192 0.0000 0.0000 0.0000 -13.9907 -9.7718 -25.5048 0.6716 5.2407 14.5964 0.1032 5.2921 -10.1795 0.3531 -3.8179 -10.5648 0.0000 0.0000 0.0000 23.4776 1.0056 -3.2101 -2.0985 -9.0683 26.0093 -1.9305 3.3557 -25.4367 -0.0094 0.6248 -1.7169 3.2549 3.2396 6.5228 1.0315 4.5631 0.8120 -1.1456 2.2382 -2.6408 -10.6344 -2.6110 -27.8132 2.3605 -0.1616 4.6053 2.4067 -0.1301 5.6722 -0.0000 -0.0000 0.0000 -72.9564 0.5995 -5.6748 21.5172 -32.4271 -6.3250 -0.0000 -0.0000 0.7303 13.8132 27.4074 6.4570 -7.1250 0.0000 -0.0000 -18.1513 57.1446 -5.5239 -0.0000 -0.0000 0.0000 49.3140 28.9848 18.0714 -30.5154 41.3311 -11.7485 0.0000 0.0000 9.7460 -29.2276 3.3385 -1.8662 7.1250 -0.0000 -0.0000 -1.9841 -26.1548 -0.9069
2.0538 17.6055 -6.9077 -0.4779 -28.9875 4.0982 0.0000 0.0000 0.0000 -13.7687 -10.1774 -25.4566 0.6445 5.1359 14.2967 0.0744 5.9733 -10.3312 0.2426 -3.1695 -8.7509 0.0000 0.0000 0.0000 23.5141 0.8487 -3.7965 -2.1478 -9.1673 26.3201 -1.9037 3.3834 -25.2471 -0.0090 0.6110 -1.6790 3.2489 3.2012 6.7512 1.1748 4.5207 0.9224 -1.0026 2.2174 -2.6681 -10.8446 -2.6576 -27.8968 2.3942 -0.1448 4.6351 2.4522 -0.1244 5.6923 -0.0000 -0.0000 0.0000 -74.5718 0.7748 -5.2875 19.5119 -30.0498 -5.2848 -0.0000 -0.0000 5.5434 13.3172 26.1274 5.9509 -7.1250 0.0000 -0.0000 -17.8825 55.8229 -4.8600 -0.0000 -0.0000 0.0000 51.6104 27.4047 18.9177 -29.9696 40.8674 -11.3898 0.0000 0.0000 9.3574 -28.7658 3.0163 -1.6546 7.1250 -0.0000 -0.0000 -1.6466 -26.5391 -0.7377
2.0827 17.6098 -6.9696 -0.4553 -28.9057 4.0823 0.0000 0.0000 0.0000 -13.7508 -10.2210 -25.4023 0.6204 5.0408 14.0249 0.0442 6.4202 -10.2183 0.2140 -2.9782 -8.2179 0.0000 0.0000 0.0000 23.5015 0.8873 -4.2082 -2.1929 -9.2568 26.6020 -1.8937 3.3100 -25.1922 -0.0180 0.8674 -2.3839 3.2348 3.1745 6.9679 1.1909 4.4869 1.0972 -0.9827 2.2026 -2.6118 -10.9332 -2.6759 -27.8580 2.5008 -0.1603 4.4260 2.4988 -0.1183 5.6186 -0.0000 -0.0000 0.0000 -75.9375 0.9764 -4.6351 17.7067 -27.7800 -4.4117 -0.0000 -0.0000 10.1020 13.5091 24.4367 5.6758 -7.1250 0.0000 -0.0000 -16.7597 54.2373 -3.8878 -0.0000 -0.0000 0.0000 53.9516 25.6959 19.8259 -29.4232 40.3938 -11.0339 0.0000 0.0000 8.8496 -28.8344 1.8411 -1.0133 7.1250 -0.0000 -0.0000 -1.7406 -27.8769 -0.7250
2.1082 17.6110 -7.0282 -0.4165 -28.7842 4.0983 0.0000 0.0000 0.0000 -13.8267 -10.0412 -25.4456 0.6017 4.9656 13.8106 0.0229 6.5302 -9.8751 0.2114 -2.9602 -8.1681 0.0000 0.0000 0.0000 23.4974 0.9689 -4.6362 -2.2402 -9.3494 26.8946 -1.8860 3.1784 -25.1652 -0.0237 0.9948 -2.7344 3.3704 3.0849 7.1467 1.0371 4.3752 1.2495 -1.2115 2.1479 -2.5357 -10.6908 -2.6203 -27.8107 2.5333 -0.1843 4.1512 2.4688 -0.1141 5.5230 -0.0000 0.0000 0.0000 -76.9735 1.3741 -3.7683 16.0766 -25.6245 -3.6790 -0.0000 -0.0000 14.4046 13.5612 23.5224 5.4988 -7.1250 0.0000 -0.0000 -16.2464 53.3632 -3.4126 -0.0000 0.0000 0.0000 56.5189 23.9708 20.6632 -28.7866 39.8304 -10.6238 0.0000 0.0000 8.9060 -28.7768 0.6745 -0.3704 7.1250 -0.0000 -0.0000 -1.7286 -29.2084 -0.6656
2.1320 17.6112 -7.0848 -0.3718 -28.5967 4.0622 0.0000 0.0000 0.0000 -13.8935 -9.9698 -25.4237 0.5940 4.9340 13.7204 -0.0006 6.7108 -9.5574 0.1832 -2.7565 -7.6016 0.0000 0.0000 0.0000 23.4995 1.0116 -5.0112 -2.2902 -9.4461 27.2009 -1.8883 3.0025 -25.2170 -0.0255 1.0317 -2.8360 3.1618 2.9865 7.4792 1.1451 4.2419 1.3379 -0.9909 2.0814 -2.6586 -10.5799 -2.5410 -27.8314 2.3778 -0.0997 4.0591 2.4096 -0.0822 5.4897 0.0000 0.0000 0.0000 -78.4780 1.9762 -3.4272 14.5576 -23.5262 -3.0472 -0.0000 -0.0000 19.0880 12.6780 23.3318 5.0913 -7.1250 0.0000 -0.0000 -17.0188 53.0213 -3.4378 0.0000 0.0000 0.0000 58.5979 22.1842 21.1869 -27.9638 39.0829 -10.1008 0.0000 0.0000 10.1479 -26.9279 1.4644 -0.7437 7.1250 -0.0000 -0.0000 -0.2742 -28.3373 -0.1112
